<svg width="200" height="280" viewBox="0 0 200 280" fill="none" xmlns="http://www.w3.org/2000/svg">
<g clip-path="url(#clip0_7347_2)">
<path fill-rule="evenodd" clip-rule="evenodd" d="M170 0C186.569 0 200 13.4315 200 30V191.852C199.245 198.536 192.681 214.756 172.765 215.293C146.5 216 138 226.5 138.803 250.122C139.486 270.192 120.056 277.564 111 279.675C110.462 279.8 110.317 279.908 110.521 280H24C10.745 280 0 269.255 0 256V24C0 10.7452 10.745 0 24 0H170Z" fill="white" fill-opacity="0.94"/>
<mask id="mask0_7347_2" style="mask-type:luminance" maskUnits="userSpaceOnUse" x="0" y="0" width="200" height="280">
<path fill-rule="evenodd" clip-rule="evenodd" d="M170 0C186.569 0 200 13.4315 200 30V191.852C199.245 198.536 192.681 214.756 172.765 215.293C146.5 216 138 226.5 138.803 250.122C139.486 270.192 120.056 277.564 111 279.675C110.462 279.8 110.317 279.908 110.521 280H24C10.745 280 0 269.255 0 256V24C0 10.7452 10.745 0 24 0H170Z" fill="white"/>
</mask>
<g mask="url(#mask0_7347_2)">
<path d="M200 191.852H201V191.908L200.994 191.964L200 191.852ZM110.521 280L110.931 279.088L110.521 281V280ZM199 30C199 13.9837 186.016 1 170 1V-1C187.121 -1 201 12.8792 201 30H199ZM199 191.852V30H201V191.852H199ZM172.738 214.293C182.391 214.033 188.752 209.987 192.807 205.229C196.891 200.437 198.649 194.902 199.006 191.74L200.994 191.964C200.596 195.486 198.695 201.404 194.329 206.526C189.934 211.683 183.054 216.016 172.792 216.292L172.738 214.293ZM137.804 250.156C137.399 238.261 139.32 229.392 144.904 223.431C150.487 217.47 159.516 214.649 172.738 214.293L172.792 216.292C159.749 216.644 151.395 219.426 146.363 224.798C141.332 230.169 139.404 238.361 139.803 250.088L137.804 250.156ZM110.773 278.701C115.229 277.663 122.193 275.336 127.938 270.845C133.649 266.381 138.132 259.803 137.804 250.156L139.803 250.088C140.157 260.511 135.266 267.655 129.17 272.421C123.106 277.161 115.828 279.577 111.227 280.649L110.773 278.701ZM110.111 280.912C110.04 280.88 109.933 280.826 109.825 280.736C109.721 280.651 109.545 280.475 109.468 280.187C109.28 279.486 109.831 279.084 109.913 279.028C110.069 278.92 110.238 278.856 110.349 278.819C110.477 278.775 110.621 278.737 110.773 278.701L111.227 280.649C111.11 280.676 111.035 280.698 110.99 280.713C110.929 280.734 110.974 280.726 111.052 280.672C111.09 280.645 111.2 280.565 111.293 280.414C111.402 280.237 111.48 279.968 111.4 279.669C111.329 279.406 111.172 279.255 111.097 279.193C111.018 279.128 110.951 279.097 110.931 279.088L110.111 280.912ZM24 279H110.521V281H24V279ZM1 256C1 268.703 11.297 279 24 279V281C10.193 281 -1 269.807 -1 256H1ZM1 24V256H-1V24H1ZM24 1C11.297 1 1 11.2975 1 24H-1C-1 10.1929 10.193 -1 24 -1V1ZM170 1H24V-1H170V1Z" fill="white"/>
</g>
<path d="M148 247C148 234.297 158.297 224 171 224C183.703 224 194 234.297 194 247C194 259.703 183.703 270 171 270C158.297 270 148 259.703 148 247Z" fill="#F3F3FA"/>
<path d="M162.172 241.616L176.802 251.808" stroke="#111013" stroke-width="2" stroke-miterlimit="10"/>
<path d="M165.984 255.29C168.838 251.236 174.441 250.25 178.513 253.086" stroke="#111013" stroke-width="2" stroke-miterlimit="10"/>
<path d="M178.514 253.087C174.443 250.25 173.457 244.675 176.311 240.622" stroke="#111013" stroke-width="2" stroke-miterlimit="10"/>
</g>
<defs>
<clipPath id="clip0_7347_2">
<rect width="200" height="280" fill="white" transform="matrix(-1 0 0 1 200 0)"/>
</clipPath>
</defs>
</svg>
